<mxfile host="Electron" modified="2024-03-22T12:28:52.498Z" agent="Mozilla/5.0 (Windows NT 10.0; Win64; x64) AppleWebKit/537.36 (KHTML, like Gecko) draw.io/23.1.5 Chrome/120.0.6099.109 Electron/28.1.0 Safari/537.36" etag="OAiptA7bW0NyhL7HBhtI" version="23.1.5" type="device">
  <diagram name="Page-1" id="6TBuuih9nH9oJguaqHNF">
    <mxGraphModel dx="1036" dy="606" grid="1" gridSize="10" guides="1" tooltips="1" connect="1" arrows="1" fold="1" page="1" pageScale="1" pageWidth="827" pageHeight="1169" math="0" shadow="0">
      <root>
        <mxCell id="0" />
        <mxCell id="1" parent="0" />
        <mxCell id="fPgYhk_4lXPyHKJmDCoh-1" value="" style="strokeWidth=1;shadow=0;dashed=0;align=center;html=1;shape=mxgraph.mockup.containers.browserWindow;rSize=0;strokeColor=#666666;strokeColor2=#008cff;strokeColor3=#c4c4c4;mainText=,;recursiveResize=0;" parent="1" vertex="1">
          <mxGeometry x="9" y="70" width="851" height="1080" as="geometry" />
        </mxCell>
        <mxCell id="fPgYhk_4lXPyHKJmDCoh-2" value="4thPage" style="strokeWidth=1;shadow=0;dashed=0;align=center;html=1;shape=mxgraph.mockup.containers.anchor;fontSize=17;fontColor=#666666;align=left;whiteSpace=wrap;" parent="fPgYhk_4lXPyHKJmDCoh-1" vertex="1">
          <mxGeometry x="60" y="20" width="110" height="26" as="geometry" />
        </mxCell>
        <mxCell id="fPgYhk_4lXPyHKJmDCoh-3" value="https://www.PihaLodge/FinalPageConfirmation" style="strokeWidth=1;shadow=0;dashed=0;align=center;html=1;shape=mxgraph.mockup.containers.anchor;rSize=0;fontSize=17;fontColor=#666666;align=left;" parent="fPgYhk_4lXPyHKJmDCoh-1" vertex="1">
          <mxGeometry x="130" y="60" width="250" height="26" as="geometry" />
        </mxCell>
        <mxCell id="fPgYhk_4lXPyHKJmDCoh-66" value="" style="verticalLabelPosition=bottom;shadow=0;dashed=0;align=center;html=1;verticalAlign=top;strokeWidth=1;shape=mxgraph.mockup.graphics.simpleIcon;strokeColor=#999999;" parent="fPgYhk_4lXPyHKJmDCoh-1" vertex="1">
          <mxGeometry x="11" y="130" width="250" height="130" as="geometry" />
        </mxCell>
        <mxCell id="fPgYhk_4lXPyHKJmDCoh-67" value="Piha Lodge" style="text;strokeColor=none;fillColor=none;html=1;fontSize=24;fontStyle=1;verticalAlign=middle;align=center;" parent="fPgYhk_4lXPyHKJmDCoh-1" vertex="1">
          <mxGeometry x="86" y="175" width="100" height="40" as="geometry" />
        </mxCell>
        <mxCell id="fPgYhk_4lXPyHKJmDCoh-73" value="About Us" style="strokeWidth=1;shadow=0;dashed=0;align=center;html=1;shape=mxgraph.mockup.buttons.button;strokeColor=#666666;fontColor=#ffffff;mainText=;buttonStyle=round;fontSize=17;fontStyle=1;fillColor=#1FFF87;whiteSpace=wrap;" parent="fPgYhk_4lXPyHKJmDCoh-1" vertex="1">
          <mxGeometry x="631" y="130" width="150" height="50" as="geometry" />
        </mxCell>
        <mxCell id="fPgYhk_4lXPyHKJmDCoh-74" value="Contact Us" style="strokeWidth=1;shadow=0;dashed=0;align=center;html=1;shape=mxgraph.mockup.buttons.button;strokeColor=#666666;fontColor=#ffffff;mainText=;buttonStyle=round;fontSize=17;fontStyle=1;fillColor=#1FFF87;whiteSpace=wrap;labelBackgroundColor=none;" parent="fPgYhk_4lXPyHKJmDCoh-1" vertex="1">
          <mxGeometry x="461" y="130" width="150" height="50" as="geometry" />
        </mxCell>
        <mxCell id="fPgYhk_4lXPyHKJmDCoh-75" value="Main Page" style="strokeWidth=1;shadow=0;dashed=0;align=center;html=1;shape=mxgraph.mockup.buttons.button;strokeColor=#666666;fontColor=#ffffff;mainText=;buttonStyle=round;fontSize=17;fontStyle=1;fillColor=#1FFF87;whiteSpace=wrap;" parent="fPgYhk_4lXPyHKJmDCoh-1" vertex="1">
          <mxGeometry x="291" y="130" width="150" height="50" as="geometry" />
        </mxCell>
        <mxCell id="fPgYhk_4lXPyHKJmDCoh-140" value="" style="shape=mxgraph.mockup.containers.marginRect;rectMarginTop=10;strokeColor=#666666;strokeWidth=1;dashed=0;rounded=1;arcSize=5;recursiveResize=0;html=1;whiteSpace=wrap;" parent="fPgYhk_4lXPyHKJmDCoh-1" vertex="1">
          <mxGeometry x="201" y="290" width="449" height="750" as="geometry" />
        </mxCell>
        <mxCell id="fPgYhk_4lXPyHKJmDCoh-141" value="Make your booking with us" style="shape=rect;strokeColor=none;fillColor=#008cff;strokeWidth=1;dashed=0;rounded=1;arcSize=20;fontColor=#ffffff;fontSize=17;spacing=2;spacingTop=-2;align=left;autosize=1;spacingLeft=4;resizeWidth=0;resizeHeight=0;perimeter=none;html=1;whiteSpace=wrap;" parent="fPgYhk_4lXPyHKJmDCoh-140" vertex="1">
          <mxGeometry x="90" y="35" width="255" height="30" as="geometry" />
        </mxCell>
        <mxCell id="fPgYhk_4lXPyHKJmDCoh-278" value="" style="verticalLabelPosition=bottom;shadow=0;dashed=0;align=center;html=1;verticalAlign=top;strokeWidth=1;shape=mxgraph.mockup.misc.progressBar;fillColor=#cccccc;strokeColor=none;fillColor2=#99ddff;barPos=80;" parent="fPgYhk_4lXPyHKJmDCoh-140" vertex="1">
          <mxGeometry x="124.5" y="700" width="200" height="20" as="geometry" />
        </mxCell>
        <mxCell id="fPgYhk_4lXPyHKJmDCoh-283" value="Submit" style="rounded=1;html=1;shadow=0;dashed=0;whiteSpace=wrap;fontSize=10;fillColor=#E6E6E6;align=center;strokeColor=#B3B3B3;fontColor=#333333;" parent="fPgYhk_4lXPyHKJmDCoh-140" vertex="1">
          <mxGeometry x="164.75" y="650" width="105.5" height="16.88" as="geometry" />
        </mxCell>
        <mxCell id="x6LUmq6az_TB_j9jFu4Y-1" value="&lt;h1&gt;Please Confirm the information you provided us is correct and true&lt;/h1&gt;" style="text;html=1;spacing=5;spacingTop=-20;whiteSpace=wrap;overflow=hidden;rounded=0;" vertex="1" parent="fPgYhk_4lXPyHKJmDCoh-140">
          <mxGeometry x="60" y="140" width="330" height="160" as="geometry" />
        </mxCell>
        <mxCell id="x6LUmq6az_TB_j9jFu4Y-2" value="Yes, I confirm" style="strokeWidth=1;shadow=0;dashed=0;align=center;html=1;shape=mxgraph.mockup.forms.rrect;rSize=0;fillColor=#eeeeee;strokeColor=#999999;gradientColor=#cccccc;align=left;spacingLeft=4;fontSize=17;fontColor=#666666;labelPosition=right;" vertex="1" parent="fPgYhk_4lXPyHKJmDCoh-140">
          <mxGeometry x="164" y="440" width="15" height="15" as="geometry" />
        </mxCell>
        <mxCell id="x6LUmq6az_TB_j9jFu4Y-3" value="&lt;h1&gt;&lt;span style=&quot;font-weight: normal;&quot;&gt;&lt;font style=&quot;font-size: 16px;&quot;&gt;The information i have provided and the decisions i have made in this booking are correct and true.&amp;nbsp; I am wholly responsible for any cancellations&amp;nbsp;&lt;/font&gt;&lt;/span&gt;&lt;/h1&gt;" style="text;html=1;spacing=5;spacingTop=-20;whiteSpace=wrap;overflow=hidden;rounded=0;" vertex="1" parent="fPgYhk_4lXPyHKJmDCoh-140">
          <mxGeometry x="60" y="280" width="330" height="160" as="geometry" />
        </mxCell>
        <mxCell id="x6LUmq6az_TB_j9jFu4Y-4" value="No, i disagree" style="strokeWidth=1;shadow=0;dashed=0;align=center;html=1;shape=mxgraph.mockup.forms.rrect;rSize=0;fillColor=#eeeeee;strokeColor=#999999;gradientColor=#cccccc;align=left;spacingLeft=4;fontSize=17;fontColor=#666666;labelPosition=right;" vertex="1" parent="fPgYhk_4lXPyHKJmDCoh-140">
          <mxGeometry x="164.75" y="490" width="15" height="15" as="geometry" />
        </mxCell>
      </root>
    </mxGraphModel>
  </diagram>
</mxfile>
